<svg width="35" height="24" viewBox="0 0 35 24" fill="none" xmlns="http://www.w3.org/2000/svg">
<g clip-path="url(#clip0_7012_1358)">
<path d="M34.2462 3.74333C34.0504 3.01981 33.6685 2.36019 33.1385 1.83017C32.6085 1.30015 31.9489 0.918215 31.2254 0.7224C28.5766 0 17.9161 0 17.9161 0C17.9161 0 7.25499 0.0218666 4.60619 0.744267C3.88266 0.940093 3.22305 1.32205 2.69305 1.85209C2.16305 2.38214 1.78115 3.04178 1.58539 3.76533C0.784192 8.47173 0.473391 15.6432 1.60739 20.1613C1.80317 20.8849 2.18508 21.5445 2.71508 22.0745C3.24508 22.6045 3.90467 22.9865 4.62819 23.1823C7.27699 23.9047 17.9378 23.9047 17.9378 23.9047C17.9378 23.9047 28.5985 23.9047 31.2471 23.1823C31.9707 22.9865 32.6303 22.6045 33.1603 22.0745C33.6903 21.5445 34.0723 20.8849 34.2681 20.1613C35.1131 15.4483 35.3735 8.2812 34.2462 3.74333Z" fill="#FF0000"/>
<path d="M14.5228 17.0746L23.3666 11.9522L14.5228 6.82983V17.0746Z" fill="white"/>
</g>
<defs>
<clipPath id="clip0_7012_1358">
<rect width="34.1333" height="24" fill="white" transform="translate(0.866699)"/>
</clipPath>
</defs>
</svg>
