<svg width="24" height="24" viewBox="0 0 24 24" fill="none" xmlns="http://www.w3.org/2000/svg">
<path fill-rule="evenodd" clip-rule="evenodd" d="M13.75 3L5.25 3C5.05109 3 4.86032 3.07902 4.71967 3.21967C4.57902 3.36032 4.5 3.55109 4.5 3.75L4.5 20.25C4.5 20.4489 4.57901 20.6397 4.71967 20.7803C4.86032 20.921 5.05108 21 5.25 21L18.75 21C18.9489 21 19.1397 20.921 19.2803 20.7803C19.421 20.6397 19.5 20.4489 19.5 20.25L19.5 8.75L14.25 8.75C13.9739 8.75 13.75 8.52614 13.75 8.25L13.75 3ZM19 7.75L14.75 3.5L14.75 7.75L19 7.75Z" fill="#F43131"/>
<path d="M7.498 17V13.076H8.734C9.026 13.076 9.286 13.114 9.514 13.19C9.742 13.266 9.922 13.392 10.054 13.568C10.186 13.744 10.252 13.984 10.252 14.288C10.252 14.576 10.186 14.814 10.054 15.002C9.926 15.19 9.748 15.33 9.52 15.422C9.296 15.514 9.042 15.56 8.758 15.56H8.194V17H7.498ZM8.194 15.002H8.704C8.996 15.002 9.212 14.942 9.352 14.822C9.496 14.702 9.568 14.524 9.568 14.288C9.568 14.04 9.492 13.87 9.34 13.778C9.192 13.682 8.972 13.634 8.68 13.634H8.194V15.002ZM10.9902 17V13.076H12.0402C12.4402 13.076 12.7822 13.148 13.0662 13.292C13.3502 13.436 13.5682 13.652 13.7202 13.94C13.8722 14.228 13.9482 14.588 13.9482 15.02C13.9482 15.452 13.8722 15.816 13.7202 16.112C13.5722 16.404 13.3582 16.626 13.0782 16.778C12.7982 16.926 12.4642 17 12.0762 17H10.9902ZM11.6862 16.436H11.9922C12.2562 16.436 12.4802 16.386 12.6642 16.286C12.8522 16.182 12.9942 16.026 13.0902 15.818C13.1862 15.61 13.2342 15.344 13.2342 15.02C13.2342 14.7 13.1862 14.438 13.0902 14.234C12.9942 14.03 12.8522 13.88 12.6642 13.784C12.4802 13.688 12.2562 13.64 11.9922 13.64H11.6862V16.436ZM14.7402 17V13.076H17.1102V13.664H15.4362V14.774H16.8642V15.362H15.4362V17H14.7402Z" fill="white"/>
</svg>
